<svg width="203" height="128" viewBox="0 0 203 128" fill="none" xmlns="http://www.w3.org/2000/svg">
<path d="M14.2414 127.178C8.94559 128.658 3.39162 125.613 2.34949 120.214C0.0216432 108.154 -0.146674 95.7881 1.8808 83.7119C4.45248 68.3943 10.4883 53.9511 19.5235 41.4945C28.5588 29.0378 40.3524 18.8999 53.9964 11.8612C67.6404 4.82262 82.7709 1.07106 98.2228 0.895414C113.675 0.719763 129.036 4.12471 143.124 10.8481C157.211 17.5715 169.65 27.4339 179.482 39.6761C189.313 51.9183 196.276 66.2137 199.833 81.4616C202.595 93.3007 203.247 105.469 201.787 117.397C201.095 123.054 195.452 126.48 189.926 125.087V125.087C184.576 123.738 181.35 118.362 181.912 112.873C182.836 103.846 182.254 94.6697 180.168 85.7285C177.322 73.5302 171.752 62.0939 163.887 52.3001C156.022 42.5064 146.071 34.6164 134.801 29.2377C123.53 23.859 111.241 21.135 98.88 21.2756C86.5184 21.4161 74.4141 24.4173 63.4989 30.0482C52.5837 35.6791 43.1487 43.7895 35.9206 53.7548C28.6924 63.7201 23.8637 75.2747 21.8064 87.5287C20.3085 96.4503 20.3087 105.569 21.7841 114.511C22.6966 120.041 19.6391 125.67 14.2414 127.178V127.178Z" fill="#FF6A6A"/>
</svg>
