<svg width="203" height="128" viewBox="0 0 203 128" fill="none" xmlns="http://www.w3.org/2000/svg">
<path d="M14.2453 127.178C8.94949 128.657 3.39552 125.612 2.35339 120.213C0.0255413 108.153 -0.142776 95.7876 1.8847 83.7114C4.45637 68.3938 10.4922 53.9507 19.5274 41.494C28.5627 29.0373 40.3563 18.8994 54.0003 11.8608C67.6443 4.82214 82.7748 1.07058 98.2267 0.89493C113.679 0.719278 129.04 4.12422 143.128 10.8476C157.215 17.571 169.654 27.4334 179.486 39.6756C189.317 51.9178 196.28 66.2132 199.837 81.4612C202.599 93.3002 203.251 105.468 201.791 117.396C201.098 123.053 195.456 126.48 189.93 125.086V125.086C184.58 123.738 181.353 118.362 181.915 112.872C182.84 103.845 182.258 94.6693 180.172 85.7281C177.326 73.5297 171.756 62.0934 163.891 52.2996C156.026 42.5059 146.075 34.6159 134.805 29.2372C123.534 23.8585 111.245 21.1345 98.8839 21.2751C86.5223 21.4156 74.418 24.4168 63.5028 30.0477C52.5876 35.6786 43.1526 43.789 35.9245 53.7543C28.6963 63.7197 23.8676 75.2742 21.8103 87.5282C20.3124 96.4499 20.3126 105.569 21.788 114.511C22.7005 120.04 19.643 125.67 14.2453 127.178V127.178Z" fill="#C65300"/>
</svg>
