<svg width="203" height="127" viewBox="0 0 203 127" fill="none" xmlns="http://www.w3.org/2000/svg">
<path d="M189.193 1.94015C194.514 0.553179 200.014 3.69505 200.962 9.11134C203.079 21.2099 203.031 33.5767 200.793 45.6157C197.955 60.8861 191.668 75.2217 182.416 87.5188C173.165 99.8159 161.196 109.746 147.432 116.546C133.667 123.345 118.473 126.832 103.021 126.738C87.568 126.644 72.2686 122.972 58.3003 116.003C44.332 109.035 32.0674 98.9571 22.4509 86.5452C12.8344 74.1333 6.12242 59.7186 2.83179 44.4109C0.276814 32.5254 -0.162678 20.3478 1.50544 8.44722C2.29655 2.8033 7.99765 -0.524348 13.4987 0.965086V0.965086C18.8248 2.40716 21.9566 7.83866 21.2989 13.3172C20.2172 22.327 20.6386 31.5116 22.5682 40.4878C25.2007 52.734 30.5703 64.2658 38.2635 74.1953C45.9567 84.1248 55.7683 92.1873 66.943 97.7618C78.1176 103.336 90.3572 106.274 102.719 106.35C115.081 106.425 127.236 103.635 138.248 98.1958C149.26 92.7563 158.835 84.8118 166.236 74.9742C173.637 65.1365 178.667 53.668 180.937 41.4517C182.591 32.5576 182.75 23.4398 181.431 14.4739C180.615 8.92921 183.77 3.35382 189.193 1.94015V1.94015Z" fill="#FF6A6A"/>
</svg>
