<svg width="44" height="44" viewBox="0 0 44 44" fill="none" xmlns="http://www.w3.org/2000/svg">
<path d="M22 42C33.0457 42 42 33.0457 42 22C42 10.9543 33.0457 2 22 2C10.9543 2 2 10.9543 2 22C2 33.0457 10.9543 42 22 42Z" stroke="#22A9E3" stroke-width="4" stroke-linecap="round" stroke-linejoin="round"/>
<path d="M4 20.192L10.023 17.577L14.326 19.321L16.907 28.91L14.326 32.397H6.581M28.093 4.5L22.07 8.859V13.218L29.814 19.321L34.116 17.577L36.698 10.603L28.093 4.5ZM16.047 4.5L22.07 8.859V13.218L14.326 19.321L10.023 17.577L7.442 10.603L16.047 4.5Z" stroke="#22A9E3" stroke-width="4" stroke-linecap="round" stroke-linejoin="round"/>
<path d="M14.3242 38.5V32.397L16.9052 28.91H27.2312L29.8122 32.397V38.5" stroke="#22A9E3" stroke-width="4" stroke-linecap="round" stroke-linejoin="round"/>
<path d="M37.5594 32.397H29.8154L27.2344 28.91L29.8154 19.321L34.1174 17.577L41.0014 21.064" stroke="#22A9E3" stroke-width="4" stroke-linecap="round" stroke-linejoin="round"/>
</svg>
